<svg width="197" height="50" viewBox="0 0 197 50" fill="none" xmlns="http://www.w3.org/2000/svg">
<path d="M0 0H50V50H0V0Z" fill="white"/>
<path d="M50.0966 14.1818L46.4744 36H42.6179L46.2401 14.1818H50.0966ZM57.6419 36.3196C56.0012 36.3196 54.6447 35.9787 53.5723 35.2969C52.4998 34.608 51.747 33.6349 51.3137 32.3778C50.8876 31.1136 50.8166 29.6257 51.1007 27.9141C51.3777 26.2308 51.9423 24.7536 52.7946 23.4822C53.6468 22.2038 54.7122 21.2095 55.9906 20.4993C57.2761 19.782 58.6966 19.4233 60.252 19.4233C61.2605 19.4233 62.1873 19.5866 63.0325 19.9134C63.8777 20.233 64.5914 20.7301 65.1738 21.4048C65.7562 22.0795 66.1575 22.9389 66.3777 23.983C66.5978 25.0199 66.5872 26.2557 66.3457 27.6903L66.1646 28.8729H52.7413L53.1568 26.2734H62.8727C63.0005 25.5348 62.9579 24.8778 62.7449 24.3026C62.5318 23.7202 62.1767 23.2621 61.6795 22.9283C61.1824 22.5945 60.5609 22.4276 59.8152 22.4276C59.0552 22.4276 58.345 22.6229 57.6845 23.0135C57.0311 23.397 56.4806 23.8942 56.0332 24.505C55.5858 25.1158 55.3017 25.7585 55.1809 26.4332L54.7441 28.9261C54.5879 29.9489 54.6234 30.7834 54.8507 31.4297C55.0779 32.076 55.4757 32.5518 56.0439 32.8572C56.612 33.1626 57.3294 33.3153 58.1958 33.3153C58.764 33.3153 59.2896 33.2372 59.7726 33.081C60.2555 32.9247 60.6852 32.6903 61.0616 32.3778C61.4451 32.0582 61.7647 31.6676 62.0204 31.206L65.5467 31.6108C65.1561 32.5625 64.5843 33.3935 63.8315 34.1037C63.0787 34.8068 62.1767 35.3537 61.1255 35.7443C60.0815 36.1278 58.9203 36.3196 57.6419 36.3196ZM75.3478 36.3196C73.7143 36.3196 72.372 35.9609 71.3208 35.2436C70.2697 34.5263 69.5346 33.5355 69.1156 32.2713C68.7037 31 68.6362 29.5369 68.9132 27.8821C69.1831 26.2202 69.7406 24.7536 70.5858 23.4822C71.438 22.2038 72.5105 21.2095 73.8031 20.4993C75.0957 19.782 76.541 19.4233 78.139 19.4233C79.4672 19.4233 80.6 19.6683 81.5375 20.1584C82.4821 20.6413 83.1852 21.3267 83.6468 22.2145C84.1156 23.0952 84.2967 24.125 84.1902 25.304H80.4934C80.4792 24.5156 80.2342 23.8587 79.7583 23.3331C79.2825 22.8004 78.5865 22.5341 77.6703 22.5341C76.8748 22.5341 76.1433 22.7472 75.4757 23.1733C74.8081 23.5923 74.2434 24.196 73.7818 24.9844C73.3201 25.7727 73.0005 26.7173 72.823 27.8182C72.6383 28.9332 72.6419 29.892 72.8336 30.6946C73.0325 31.4901 73.3912 32.1044 73.9096 32.5376C74.4352 32.9638 75.0993 33.1768 75.9018 33.1768C76.47 33.1768 76.9991 33.0703 77.4892 32.8572C77.9792 32.6371 78.4089 32.321 78.7782 31.9091C79.1547 31.4972 79.4494 30.9964 79.6625 30.407H83.3485C83.0574 31.5646 82.5389 32.5909 81.7931 33.4858C81.0545 34.3736 80.1383 35.0696 79.0446 35.5739C77.9508 36.071 76.7186 36.3196 75.3478 36.3196ZM100.493 23.9616L96.945 24.3452C96.9094 23.983 96.7994 23.6456 96.6147 23.3331C96.43 23.0206 96.1531 22.772 95.7837 22.5874C95.4215 22.3956 94.9528 22.2997 94.3775 22.2997C93.5394 22.2997 92.8043 22.4879 92.1722 22.8643C91.5401 23.2408 91.1815 23.7237 91.0962 24.3132C91.0181 24.7536 91.1246 25.1122 91.4158 25.3892C91.707 25.6662 92.2468 25.9006 93.0352 26.0923L95.7411 26.6889C97.2326 27.0227 98.305 27.5625 98.9585 28.3082C99.619 29.054 99.8498 30.0305 99.6509 31.2379C99.4805 32.2464 99.0401 33.1342 98.3299 33.9013C97.6197 34.6612 96.7106 35.2543 95.6026 35.6804C94.5018 36.1065 93.2802 36.3196 91.9379 36.3196C89.8995 36.3196 88.3299 35.897 87.229 35.0518C86.1353 34.1996 85.592 33.0277 85.5991 31.5362L89.3917 31.174C89.4343 31.9126 89.6935 32.4702 90.1694 32.8466C90.6452 33.2159 91.3058 33.4041 92.1509 33.4112C93.1026 33.4183 93.9052 33.2195 94.5586 32.8146C95.2191 32.4027 95.592 31.902 95.6772 31.3125C95.7482 30.8722 95.6381 30.5135 95.3469 30.2365C95.0629 29.9595 94.555 29.7393 93.8235 29.576L91.1388 28.9901C89.619 28.6562 88.5359 28.0916 87.8896 27.2962C87.2504 26.4936 87.0337 25.4815 87.2397 24.2599C87.4102 23.2656 87.8256 22.4098 88.4862 21.6925C89.1538 20.968 90.0096 20.4105 91.0536 20.0199C92.0977 19.6222 93.266 19.4233 94.5586 19.4233C96.5046 19.4233 97.9712 19.8317 98.9585 20.6484C99.9457 21.4652 100.457 22.5696 100.493 23.9616ZM109.127 36.3196C107.494 36.3196 106.151 35.9609 105.1 35.2436C104.049 34.5263 103.314 33.5355 102.895 32.2713C102.483 31 102.415 29.5369 102.692 27.8821C102.962 26.2202 103.52 24.7536 104.365 23.4822C105.217 22.2038 106.29 21.2095 107.582 20.4993C108.875 19.782 110.32 19.4233 111.918 19.4233C113.246 19.4233 114.379 19.6683 115.317 20.1584C116.261 20.6413 116.964 21.3267 117.426 22.2145C117.895 23.0952 118.076 24.125 117.969 25.304H114.273C114.259 24.5156 114.013 23.8587 113.538 23.3331C113.062 22.8004 112.366 22.5341 111.45 22.5341C110.654 22.5341 109.923 22.7472 109.255 23.1733C108.587 23.5923 108.023 24.196 107.561 24.9844C107.099 25.7727 106.78 26.7173 106.602 27.8182C106.418 28.9332 106.421 29.892 106.613 30.6946C106.812 31.4901 107.17 32.1044 107.689 32.5376C108.214 32.9638 108.879 33.1768 109.681 33.1768C110.249 33.1768 110.778 33.0703 111.268 32.8572C111.759 32.6371 112.188 32.321 112.558 31.9091C112.934 31.4972 113.229 30.9964 113.442 30.407H117.128C116.837 31.5646 116.318 32.5909 115.572 33.4858C114.834 34.3736 113.918 35.0696 112.824 35.5739C111.73 36.071 110.498 36.3196 109.127 36.3196ZM126.527 36.3196C124.915 36.3196 123.572 35.9645 122.5 35.2543C121.434 34.544 120.685 33.5462 120.252 32.2607C119.819 30.9751 119.741 29.4837 120.018 27.7862C120.295 26.1101 120.849 24.6435 121.68 23.3864C122.518 22.1293 123.572 21.1562 124.844 20.4673C126.122 19.7713 127.553 19.4233 129.137 19.4233C130.749 19.4233 132.088 19.782 133.153 20.4993C134.219 21.2095 134.968 22.2074 135.401 23.4929C135.841 24.7784 135.923 26.277 135.646 27.9886C135.376 29.6577 134.819 31.1172 133.974 32.3672C133.135 33.6172 132.081 34.5902 130.809 35.2862C129.538 35.9751 128.111 36.3196 126.527 36.3196ZM126.846 33.2301C127.741 33.2301 128.526 32.9886 129.201 32.5057C129.883 32.0156 130.44 31.3587 130.873 30.5348C131.314 29.7038 131.619 28.7805 131.79 27.7649C131.946 26.7848 131.949 25.897 131.8 25.1016C131.651 24.299 131.331 23.6634 130.841 23.1946C130.358 22.7187 129.687 22.4808 128.828 22.4808C127.933 22.4808 127.141 22.7294 126.452 23.2266C125.77 23.7166 125.213 24.3771 124.78 25.2081C124.346 26.032 124.048 26.9517 123.885 27.9673C123.721 28.9474 123.714 29.8352 123.863 30.6307C124.013 31.4261 124.332 32.0582 124.822 32.527C125.312 32.9957 125.987 33.2301 126.846 33.2301ZM144.779 36.3196C143.167 36.3196 141.824 35.9645 140.752 35.2543C139.686 34.544 138.937 33.5462 138.504 32.2607C138.071 30.9751 137.993 29.4837 138.27 27.7862C138.547 26.1101 139.1 24.6435 139.931 23.3864C140.77 22.1293 141.824 21.1562 143.096 20.4673C144.374 19.7713 145.805 19.4233 147.389 19.4233C149.001 19.4233 150.34 19.782 151.405 20.4993C152.471 21.2095 153.22 22.2074 153.653 23.4929C154.093 24.7784 154.175 26.277 153.898 27.9886C153.628 29.6577 153.071 31.1172 152.225 32.3672C151.387 33.6172 150.333 34.5902 149.061 35.2862C147.79 35.9751 146.363 36.3196 144.779 36.3196ZM145.098 33.2301C145.993 33.2301 146.778 32.9886 147.453 32.5057C148.135 32.0156 148.692 31.3587 149.125 30.5348C149.566 29.7038 149.871 28.7805 150.042 27.7649C150.198 26.7848 150.201 25.897 150.052 25.1016C149.903 24.299 149.583 23.6634 149.093 23.1946C148.61 22.7187 147.939 22.4808 147.08 22.4808C146.185 22.4808 145.393 22.7294 144.704 23.2266C144.022 23.7166 143.465 24.3771 143.032 25.2081C142.598 26.032 142.3 26.9517 142.137 27.9673C141.973 28.9474 141.966 29.8352 142.115 30.6307C142.265 31.4261 142.584 32.0582 143.074 32.527C143.564 32.9957 144.239 33.2301 145.098 33.2301ZM166.749 19.6364L166.248 22.6193H156.852L157.342 19.6364H166.749ZM160.303 15.7159H164.16L161.603 31.0781C161.525 31.5966 161.539 31.9943 161.646 32.2713C161.759 32.5412 161.941 32.7259 162.189 32.8253C162.445 32.9247 162.732 32.9744 163.052 32.9744C163.286 32.9744 163.507 32.9567 163.713 32.9212C163.919 32.8786 164.082 32.8466 164.203 32.8253L164.373 35.8402C164.139 35.9112 163.823 35.9893 163.425 36.0746C163.034 36.1598 162.566 36.2095 162.019 36.2237C161.039 36.245 160.186 36.0959 159.462 35.7763C158.744 35.4496 158.219 34.9489 157.885 34.2741C157.558 33.5923 157.484 32.7401 157.661 31.7173L160.303 15.7159ZM174.273 36.3196C172.632 36.3196 171.276 35.9787 170.203 35.2969C169.131 34.608 168.378 33.6349 167.945 32.3778C167.518 31.1136 167.447 29.6257 167.732 27.9141C168.009 26.2308 168.573 24.7536 169.425 23.4822C170.278 22.2038 171.343 21.2095 172.621 20.4993C173.907 19.782 175.327 19.4233 176.883 19.4233C177.891 19.4233 178.818 19.5866 179.663 19.9134C180.509 20.233 181.222 20.7301 181.805 21.4048C182.387 22.0795 182.788 22.9389 183.009 23.983C183.229 25.0199 183.218 26.2557 182.977 27.6903L182.795 28.8729H169.372L169.788 26.2734H179.504C179.631 25.5348 179.589 24.8778 179.376 24.3026C179.163 23.7202 178.808 23.2621 178.31 22.9283C177.813 22.5945 177.192 22.4276 176.446 22.4276C175.686 22.4276 174.976 22.6229 174.315 23.0135C173.662 23.397 173.112 23.8942 172.664 24.505C172.217 25.1158 171.933 25.7585 171.812 26.4332L171.375 28.9261C171.219 29.9489 171.254 30.7834 171.482 31.4297C171.709 32.076 172.107 32.5518 172.675 32.8572C173.243 33.1626 173.96 33.3153 174.827 33.3153C175.395 33.3153 175.92 33.2372 176.403 33.081C176.886 32.9247 177.316 32.6903 177.692 32.3778C178.076 32.0582 178.396 31.6676 178.651 31.206L182.178 31.6108C181.787 32.5625 181.215 33.3935 180.462 34.1037C179.71 34.8068 178.808 35.3537 177.756 35.7443C176.712 36.1278 175.551 36.3196 174.273 36.3196ZM184.884 36L187.611 19.6364H191.35L190.892 22.3636H191.062C191.51 21.419 192.142 20.6911 192.959 20.1797C193.783 19.6612 194.663 19.402 195.601 19.402C195.821 19.402 196.059 19.4126 196.315 19.4339C196.57 19.4482 196.79 19.473 196.975 19.5085L196.379 23.0561C196.215 22.9993 195.96 22.9496 195.612 22.907C195.271 22.8572 194.933 22.8324 194.599 22.8324C193.896 22.8324 193.243 22.9851 192.639 23.2905C192.043 23.5888 191.538 24.0043 191.126 24.5369C190.714 25.0696 190.448 25.6839 190.327 26.38L188.74 36H184.884Z" fill="black"/>
<path d="M13 43.3636V7H37.5028V13.3388H20.6882V22.0036H36.2422V28.3423H20.6882V37.0249H37.5739V43.3636H13Z" fill="#0D6EFD"/>
</svg>
